<mxfile>
    <diagram id="Nb6JH6dFRDMgA3R-pLA6" name="Page-1">
        <mxGraphModel dx="1371" dy="695" grid="1" gridSize="10" guides="1" tooltips="1" connect="1" arrows="1" fold="1" page="1" pageScale="1" pageWidth="1169" pageHeight="827" background="#FFFFFF" math="0" shadow="0">
            <root>
                <mxCell id="0"/>
                <mxCell id="1" parent="0"/>
                <mxCell id="2" value="&lt;font color=&quot;#050505&quot;&gt;CONFIG SERVER&lt;/font&gt;&lt;br&gt;&lt;font color=&quot;#0000ff&quot;&gt;http://config-server:8888&lt;/font&gt;" style="points=[[0,0,0],[0.25,0,0],[0.5,0,0],[0.75,0,0],[1,0,0],[0,1,0],[0.25,1,0],[0.5,1,0],[0.75,1,0],[1,1,0],[0,0.25,0],[0,0.5,0],[0,0.75,0],[1,0.25,0],[1,0.5,0],[1,0.75,0]];points=[[0,0,0],[0.25,0,0],[0.5,0,0],[0.75,0,0],[1,0,0],[0,1,0],[0.25,1,0],[0.5,1,0],[0.75,1,0],[1,1,0],[0,0.25,0],[0,0.5,0],[0,0.75,0],[1,0.25,0],[1,0.5,0],[1,0.75,0]];outlineConnect=0;fontColor=#232F3E;gradientColor=#F34482;gradientDirection=north;fillColor=#BC1356;strokeColor=#ffffff;dashed=0;verticalLabelPosition=bottom;verticalAlign=top;align=center;html=1;fontSize=12;fontStyle=0;aspect=fixed;shape=mxgraph.aws4.resourceIcon;resIcon=mxgraph.aws4.app_config;" vertex="1" parent="1">
                    <mxGeometry x="1020" y="190" width="78" height="78" as="geometry"/>
                </mxCell>
                <mxCell id="20" value="" style="group" vertex="1" connectable="0" parent="1">
                    <mxGeometry y="260" width="230" height="390" as="geometry"/>
                </mxCell>
                <mxCell id="18" value="http://localhost:7000/" style="text;html=1;strokeColor=none;fillColor=none;align=center;verticalAlign=middle;whiteSpace=wrap;rounded=0;fontColor=#000066;fontSize=14;" vertex="1" parent="20">
                    <mxGeometry y="210" width="160" height="20" as="geometry"/>
                </mxCell>
                <mxCell id="19" value="" style="group" vertex="1" connectable="0" parent="20">
                    <mxGeometry x="80" width="150" height="390" as="geometry"/>
                </mxCell>
                <mxCell id="12" value="" style="group;fillColor=#b1ddf0;strokeColor=#10739e;" vertex="1" connectable="0" parent="19">
                    <mxGeometry x="80" width="70" height="390" as="geometry"/>
                </mxCell>
                <mxCell id="10" value="&lt;font color=&quot;#000000&quot;&gt;API GATEWAY&lt;br&gt;ZUUL&lt;br&gt;&lt;/font&gt;" style="rounded=0;whiteSpace=wrap;html=1;fillColor=#b1ddf0;strokeColor=#10739e;" vertex="1" parent="12">
                    <mxGeometry width="70" height="390" as="geometry"/>
                </mxCell>
                <mxCell id="11" value="" style="outlineConnect=0;fontColor=#232F3E;gradientColor=none;fillColor=#BC1356;strokeColor=none;dashed=0;verticalLabelPosition=bottom;verticalAlign=top;align=center;html=1;fontSize=12;fontStyle=0;aspect=fixed;pointerEvents=1;shape=mxgraph.aws4.endpoint;" vertex="1" parent="12">
                    <mxGeometry x="12.5" y="119" width="45" height="45" as="geometry"/>
                </mxCell>
                <mxCell id="17" value="" style="shape=flexArrow;endArrow=classic;html=1;strokeColor=#000000;" edge="1" parent="19">
                    <mxGeometry width="50" height="50" relative="1" as="geometry">
                        <mxPoint x="-40" y="199.99999999999994" as="sourcePoint"/>
                        <mxPoint x="40" y="199.99999999999994" as="targetPoint"/>
                        <Array as="points">
                            <mxPoint y="199.99999999999994"/>
                        </Array>
                    </mxGeometry>
                </mxCell>
                <mxCell id="24" value="" style="group" vertex="1" connectable="0" parent="1">
                    <mxGeometry x="969" y="550" width="180" height="100" as="geometry"/>
                </mxCell>
                <mxCell id="22" value="" style="aspect=fixed;perimeter=ellipsePerimeter;html=1;align=center;shadow=0;dashed=0;labelBackgroundColor=none;fontSize=12;spacingTop=3;image;image=img/lib/ibm/applications/microservice.svg;labelBorderColor=none;" vertex="1" parent="24">
                    <mxGeometry x="60" width="82.2" height="60" as="geometry"/>
                </mxCell>
                <mxCell id="23" value="Eureka&lt;br&gt;&lt;font color=&quot;#000066&quot;&gt;http://eureka-server:8761&lt;/font&gt;" style="text;html=1;strokeColor=none;fillColor=none;align=center;verticalAlign=middle;whiteSpace=wrap;rounded=0;labelBackgroundColor=none;fontSize=14;fontColor=#000000;" vertex="1" parent="24">
                    <mxGeometry y="60" width="180" height="40" as="geometry"/>
                </mxCell>
                <mxCell id="25" value="" style="rounded=0;whiteSpace=wrap;html=1;labelBackgroundColor=none;fontSize=14;fillColor=none;strokeColor=#000000;dashed=1;" vertex="1" parent="1">
                    <mxGeometry x="160" y="140" width="1000" height="620" as="geometry"/>
                </mxCell>
            </root>
        </mxGraphModel>
    </diagram>
</mxfile>